<svg width="58" height="58" viewBox="0 0 58 58" fill="none" xmlns="http://www.w3.org/2000/svg">
<path d="M42.1934 2.07422C47.8429 -0.443753 52.2679 -0.710067 55.3398 2.32031C57.5362 4.48198 57.8237 7.55357 56.7305 11.4053C55.7041 15.0096 53.4354 19.365 50.333 24.3887C50.2546 24.5154 50.1199 24.6458 49.9482 24.7773C49.7748 24.9102 49.5556 25.0503 49.3008 25.1963C48.7909 25.4884 48.1286 25.8077 47.3809 26.1387C46.0252 26.7388 44.3782 27.3797 42.8262 27.9727C43.7398 28.0641 44.5481 28.2447 45.1064 28.5771L45.1973 28.6309L45.2012 28.6338C45.7107 28.9689 46.0498 29.3887 46.1338 29.9102C46.2173 30.4291 46.0437 31.0216 45.5908 31.6943C40.316 39.5589 35.3227 45.1203 30.3193 48.1816C25.3076 51.2429 20.3162 51.824 15.0801 49.7393L9.94141 52.5996C6.84025 54.3275 4.08984 55.8696 1.74414 57.1836L1.74316 57.1826C1.33707 57.4407 0.791569 57.401 0.432617 57.0518V57.0508C0.0177601 56.6457 0.0104323 55.9835 0.418945 55.5713C7.79458 48.1073 13.6837 42.1613 19.7598 36.0771L24.3721 31.4609C29.0709 26.7706 34.1066 21.7797 40.1826 15.79L40.2637 15.7188C40.6792 15.3876 41.2879 15.4107 41.6709 15.7969C42.053 16.1824 42.0785 16.7894 41.7373 17.1982L41.6641 17.2764C33.5632 25.2621 27.3176 31.4711 21.248 37.5488L21.249 37.5498C16.6948 42.1159 12.2297 46.6153 7.15234 51.7451C7.85869 51.3494 8.4428 51.0223 8.90918 50.7637C11.007 49.5937 12.8688 48.5612 14.501 47.6553H14.502C14.8002 47.4938 15.1396 47.4875 15.4307 47.6084H15.4316C20.1638 49.6322 24.6649 49.1762 29.2119 46.3984C33.9237 43.5198 38.7068 38.1723 43.8369 30.5322C43.8952 30.4442 43.9327 30.3793 43.957 30.335C43.7406 30.2189 43.4113 30.1335 42.9932 30.0762C42.5529 30.0158 42.0273 29.9872 41.458 29.9805C40.3193 29.967 39.0168 30.0385 37.8945 30.1016L37.8887 30.1025H37.8701V30.1016L37.5811 30.1201H37.5801C37.2076 30.1389 36.9064 30.0678 36.6924 29.8896C36.4768 29.7101 36.3709 29.4395 36.3516 29.1045L36.3506 29.0977V29.0859C36.3325 28.5348 36.7478 28.0711 37.29 28.0117C38.1188 27.5236 39.4438 27.0256 40.918 26.4629V26.4619C42.5325 25.8498 44.3907 25.1453 45.875 24.5459C46.6171 24.2462 47.2642 23.9734 47.7402 23.752C47.9785 23.6412 48.1722 23.5442 48.3125 23.4639C48.3826 23.4237 48.4377 23.3887 48.4775 23.3594C48.4974 23.3447 48.5127 23.3324 48.5234 23.3223C48.5287 23.3173 48.5325 23.3127 48.5352 23.3096C48.5363 23.3082 48.5375 23.3074 48.5381 23.3066V23.3057C51.5538 18.4233 53.7354 14.2352 54.7041 10.8496C55.6014 7.70574 55.4131 5.34399 53.8584 3.81836H53.8574C51.6955 1.68943 48.3907 1.79152 43.958 3.61133L43.0566 3.99805C37.8826 6.30821 31.4292 10.6985 23.793 16.333C21.8781 17.7471 20.8017 19.0098 20.0977 20.3799C19.5682 21.4103 19.2468 22.5053 18.9404 23.7832L18.6318 25.127C18.3355 26.4596 17.9906 27.9631 17.4756 29.7129C17.368 30.0799 17.194 30.3437 16.9473 30.4863C16.6992 30.6297 16.4005 30.6365 16.0732 30.541V30.542C15.8626 30.4813 15.692 30.3334 15.5508 30.1348C15.4098 29.9365 15.2928 29.6791 15.1895 29.3848C15.0347 28.9438 14.9067 28.4035 14.7812 27.8203L14.6553 27.2256C14.4685 26.3423 14.2657 25.3753 14.0908 24.6729C11.522 27.4129 9.71503 30.0848 8.7373 32.8027C7.66405 35.778 7.58524 38.8242 8.59961 42.0947V42.0957C8.76957 42.6496 8.45652 43.2366 7.89941 43.4053C7.37794 43.5631 6.8255 43.3009 6.61816 42.8105L6.58105 42.71C5.43125 38.9847 5.51591 35.5024 6.74609 32.0996C7.95097 28.7541 10.2487 25.5183 13.5264 22.2354C13.7962 21.9644 14.0767 21.8176 14.3682 21.8105C14.6595 21.8036 14.937 21.937 15.1982 22.1709H15.1973C15.2264 22.1937 15.2546 22.2196 15.2754 22.2402H15.2744C15.413 22.3762 15.5369 22.5792 15.6504 22.8223C15.7647 23.0671 15.8723 23.3611 15.9736 23.6855C16.132 24.1924 16.2771 24.7803 16.4141 25.3838C16.4682 25.1449 16.5224 24.9128 16.5723 24.6865V24.6855C17.0431 22.5979 17.4219 20.9083 18.2402 19.334C19.0606 17.7558 20.3182 16.2997 22.5352 14.6631C30.2609 8.93351 36.8359 4.46211 42.1934 2.07422Z" fill="black" stroke="black" stroke-width="0.233343"/>
</svg>
